<?xml version="1.0" encoding="utf-8"?>
<!-- Generator: Adobe Illustrator 27.0.0, SVG Export Plug-In . SVG Version: 6.00 Build 0)  -->
<svg version="1.1" id="Layer_1" xmlns="http://www.w3.org/2000/svg" xmlns:xlink="http://www.w3.org/1999/xlink" x="0px" y="0px"
	 viewBox="0 0 32 32" style="enable-background:new 0 0 32 32;" xml:space="preserve">
<style type="text/css">
	.st0{fill:none;stroke:#FFFFFF;}
	.st1{fill:none;stroke:#FFFFFF;stroke-linecap:round;}
</style>
<g id="Moderate-Rain">
	<g id="Moderate-rain" transform="translate(3.000000, 2.000000)">
		<g id="Group-2">
			<path id="Oval" class="st0" d="M9.6,4.5C8.8,4.1,7.8,3.9,6.7,3.9C3,3.9,0,6.9,0,10.6s3,6.7,6.7,6.7c1.8,0,3.5-0.7,4.7-1.9"/>
			<path id="Oval_00000118385234900000915230000005198925178024031116_" class="st1" d="M10,13.5c1.6,2.3,4.2,3.8,7.2,3.8
				c4.8,0,8.7-3.9,8.7-8.7S21.9,0,17.1,0C13,0,9.5,2.9,8.7,6.8"/>
		</g>
		
			<g id="Group-3" transform="translate(13.409396, 22.893086) rotate(25.000000) translate(-13.409396, -22.893086) translate(10.409396, 18.893086)">
			<path id="Path-5" class="st1" d="M5,0l0,2"/>
			<path id="Path-6" class="st1" d="M5,5l0,2"/>
			<path id="Path-5_00000075854672581103274550000017301686298208437651_" class="st1" d="M1,1l0,2"/>
			<path id="Path-6_00000163752250473556694390000016165636134034951089_" class="st1" d="M1,6l0,2"/>
		</g>
		
			<g id="Group-3_00000111190015823779438560000002842138492560781448_" transform="translate(4.409396, 22.893086) rotate(25.000000) translate(-4.409396, -22.893086) translate(1.409396, 18.893086)">
			<path id="Path-5_00000119839645321770140260000016581394509211172279_" class="st1" d="M5,0l0,2"/>
			<path id="Path-6_00000121963482910509639970000002991899239309262725_" class="st1" d="M5,5l0,2"/>
			<path id="Path-5_00000010994733472045556800000005123237542789383358_" class="st1" d="M1,1l0,2"/>
			<path id="Path-6_00000142169658376456424080000003885896752315027605_" class="st1" d="M1,6l0,2"/>
		</g>
	</g>
</g>
</svg>
